<?xml version="1.0" standalone="no"?>
<!DOCTYPE svg PUBLIC "-//W3C//DTD SVG 20010904//EN"
 "http://www.w3.org/TR/2001/REC-SVG-20010904/DTD/svg10.dtd">
<svg version="1.0" xmlns="http://www.w3.org/2000/svg"
 width="115.000000pt" height="120.000000pt" viewBox="0 0 115.000000 120.000000"
 preserveAspectRatio="xMidYMid meet">

<g transform="translate(0.000000,120.000000) scale(0.100000,-0.100000)"
fill="#000000" stroke="none">
<path d="M350 1100 c0 -16 5 -30 10 -30 6 0 10 14 10 30 0 17 -4 30 -10 30 -5
0 -10 -13 -10 -30z"/>
<path d="M192 1103 c-7 -2 -17 -14 -23 -25 -11 -20 -10 -20 12 -4 13 9 31 16
41 16 10 0 18 5 18 10 0 10 -26 12 -48 3z"/>
<path d="M270 965 c0 -78 2 -85 20 -85 18 0 20 7 20 71 0 64 -12 99 -34 99 -3
0 -6 -38 -6 -85z"/>
<path d="M481 999 c-24 -21 -38 -39 -32 -39 14 0 88 67 81 73 -3 3 -25 -13
-49 -34z"/>
<path d="M950 1000 c0 -5 7 -10 15 -10 8 0 15 5 15 10 0 6 -7 10 -15 10 -8 0
-15 -4 -15 -10z"/>
<path d="M947 973 c-4 -3 -7 -59 -7 -124 0 -110 1 -117 19 -112 25 6 32 56 24
161 -6 77 -15 97 -36 75z"/>
<path d="M614 896 c-28 -28 -34 -42 -34 -75 0 -81 57 -138 119 -122 59 16 92
125 55 181 -42 62 -89 67 -140 16z m90 -42 c20 -19 21 -68 2 -83 -26 -21 -68
-9 -79 22 -18 54 39 100 77 61z"/>
<path d="M254 861 c-2 -2 -4 -31 -4 -63 l0 -58 -38 0 c-54 0 -62 -13 -62 -102
0 -71 -2 -78 -19 -78 -11 0 -23 -4 -26 -10 -4 -6 22 -10 70 -10 l76 0 -3 -87
-3 -88 -47 -3 c-43 -3 -48 -5 -48 -28 l0 -24 310 0 310 0 0 60 0 59 -49 -24
c-82 -41 -169 -29 -242 34 -46 39 -89 119 -89 167 0 22 -8 36 -30 52 -30 22
-30 24 -30 117 l0 95 -36 -3 c-19 -1 -37 -4 -40 -6z m166 -486 c0 -18 -5 -25
-19 -25 -11 0 -23 5 -26 10 -11 18 3 40 25 40 15 0 20 -7 20 -25z"/>
<path d="M390 374 c0 -8 5 -12 10 -9 6 4 8 11 5 16 -9 14 -15 11 -15 -7z"/>
<path d="M420 823 c0 -5 9 -23 21 -42 14 -23 19 -46 17 -68 -3 -23 -1 -30 7
-22 18 18 12 95 -9 118 -19 21 -36 27 -36 14z"/>
<path d="M950 720 c-12 -8 -12 -10 3 -16 21 -8 35 2 21 16 -5 5 -15 6 -24 0z"/>
<path d="M135 464 c-15 -15 -15 -19 -1 -32 17 -17 46 -10 46 11 0 8 -6 20 -14
26 -11 9 -18 8 -31 -5z m26 -17 c-1 -12 -15 -9 -19 4 -3 6 1 10 8 8 6 -3 11
-8 11 -12z"/>
<path d="M300 40 c0 -6 52 -10 135 -10 83 0 135 4 135 10 0 6 -52 10 -135 10
-83 0 -135 -4 -135 -10z"/>
</g>
</svg>
