<?xml version="1.0" encoding="UTF-8"?>
<svg version="1.1" xmlns="http://www.w3.org/2000/svg" width="115" height="120">
<path d="M0 0 C2.93167219 0.31693753 4.58982661 0.63225834 6.8125 2.625 C8.4454521 5.8909042 8.33326944 8.40069002 8 12 C7.34 12.66 6.68 13.32 6 14 C5.82684543 16.80862574 5.7679653 19.50681366 5.8125 22.3125 C5.81314453 23.07240234 5.81378906 23.83230469 5.81445312 24.61523438 C5.83922758 27.78361227 5.9344719 30.68127486 6.57421875 33.79296875 C7.05155909 36.26725584 6.70064617 37.60928167 6 40 C5.86328895 41.51696689 5.78091981 43.03969915 5.75 44.5625 C5.72421875 45.32691406 5.6984375 46.09132812 5.671875 46.87890625 C6.08225704 49.531733 7.11786855 50.17192454 9 52 C9.1875 55.6875 9.1875 55.6875 9 59 C7.68 58.34 6.36 57.68 5 57 C5 56.34 5 55.68 5 55 C3.515 55.495 3.515 55.495 2 56 C2.495 59.465 2.495 59.465 3 63 C0.6875 62.875 0.6875 62.875 -2 62 C-4.08428077 59.2433706 -5.16266311 57.33240227 -4.734375 53.82421875 C-4.24554606 51.85842807 -3.63060353 49.92500024 -3 48 C-7.90726776 52.0459922 -8.00789598 56.26245933 -8.8984375 62.296875 C-9.96580541 65.88504798 -10.69997179 66.98688389 -13.0546875 69.6796875 C-17.17397971 74.81730157 -16.81899587 80.01971364 -16.75 86.375 C-16.75762818 88.528689 -16.77285751 90.68236891 -16.796875 92.8359375 C-16.79010742 93.78001465 -16.78333984 94.7240918 -16.77636719 95.69677734 C-17 98 -17 98 -19 100 C-21.52197266 100.31884766 -21.52197266 100.31884766 -24.6640625 100.4140625 C-25.78554687 100.45273438 -26.90703125 100.49140625 -28.0625 100.53125 C-29.238125 100.5621875 -30.41375 100.593125 -31.625 100.625 C-32.80835938 100.66367188 -33.99171875 100.70234375 -35.2109375 100.7421875 C-38.14046691 100.83668845 -41.06998597 100.92224558 -44 101 C-44 104.3 -44 107.6 -44 111 C-41.03 111.495 -41.03 111.495 -38 112 C-38 113.32 -38 114.64 -38 116 C-47.24 116 -56.48 116 -66 116 C-66 114.68 -66 113.36 -66 112 C-63.69 112 -61.38 112 -59 112 C-59.33 108.37 -59.66 104.74 -60 101 C-61.26457031 100.96261719 -62.52914062 100.92523438 -63.83203125 100.88671875 C-65.4922173 100.82106167 -67.15237222 100.75461424 -68.8125 100.6875 C-69.64587891 100.66494141 -70.47925781 100.64238281 -71.33789062 100.61914062 C-72.54155273 100.5659668 -72.54155273 100.5659668 -73.76953125 100.51171875 C-74.87711792 100.47244263 -74.87711792 100.47244263 -76.00708008 100.43237305 C-78.54089177 99.88265107 -79.45826459 99.06285159 -81 97 C-81.29296875 93.64453125 -81.29296875 93.64453125 -81.1875 89.8125 C-81.16042969 88.54019531 -81.13335937 87.26789063 -81.10546875 85.95703125 C-81.07066406 84.98121094 -81.03585938 84.00539063 -81 83 C-82.670625 83.0309375 -82.670625 83.0309375 -84.375 83.0625 C-88 83 -88 83 -90 82 C-90 75.07 -90 68.14 -90 61 C-87.04335481 59.5216774 -84.25770263 59.93967217 -81 60 C-81.02320312 59.02417969 -81.04640625 58.04835937 -81.0703125 57.04296875 C-81.08835937 55.77066406 -81.10640625 54.49835937 -81.125 53.1875 C-81.14820312 51.92292969 -81.17140625 50.65835938 -81.1953125 49.35546875 C-81 46 -81 46 -79 43 C-77.0546875 42.70703125 -77.0546875 42.70703125 -74.875 42.8125 C-73.59625 42.874375 -72.3175 42.93625 -71 43 C-71.14168137 41.56208484 -71.28851043 40.1246763 -71.4375 38.6875 C-71.51871094 37.88699219 -71.59992188 37.08648437 -71.68359375 36.26171875 C-71.95265693 33.83912821 -71.95265693 33.83912821 -73 31 C-71.68 30.34 -70.36 29.68 -69 29 C-69 24.05 -69 19.1 -69 14 C-70.32 13.67 -71.64 13.34 -73 13 C-73 12.34 -73 11.68 -73 11 C-75.31 11.66 -77.62 12.32 -80 13 C-79.43601004 9.49411644 -78.33036227 8.01017608 -75.625 5.75 C-75.01914063 5.22921875 -74.41328125 4.7084375 -73.7890625 4.171875 C-72 3 -72 3 -69 3 C-69 2.34 -69 1.68 -69 1 C-67.02 1 -65.04 1 -63 1 C-63 1.66 -63 2.32 -63 3 C-59.7 3.33 -56.4 3.66 -53 4 C-53 6.97 -53 9.94 -53 13 C-56.3 13.33 -59.6 13.66 -63 14 C-63 17.63 -63 21.26 -63 25 C-59.20211302 26.12126781 -59.20211302 26.12126781 -56 26 C-53.53420044 21.60444427 -52.66794126 17.96184938 -52 13 C-47.55659548 8.55659548 -38.28372938 8.89920841 -32.1875 8.75 C-29.25299363 8.81449465 -26.6480785 9.25097926 -23.8125 10 C-20.12268014 11.15248782 -20.12268014 11.15248782 -16.6875 10.9375 C-14 11 -14 11 -12.125 12 C-10.64392276 14.63302621 -10.96232573 16.84139867 -11.09375 19.79296875 C-10.93453476 23.54116079 -9.46770623 26.57535212 -8 30 C-7.38125 29.505 -6.7625 29.01 -6.125 28.5 C-4 27 -4 27 -2 27 C-2.08723378 25.22825181 -2.19541655 23.45752623 -2.3125 21.6875 C-2.37050781 20.70136719 -2.42851563 19.71523438 -2.48828125 18.69921875 C-3.056823 15.70026953 -3.71544408 14.90869067 -6 13 C-7.35439668 10.29120665 -7.06501451 7.99066732 -7 5 C-6.01 5 -5.02 5 -4 5 C-3.505 6.98 -3.505 6.98 -3 9 C-1.68 8.67 -0.36 8.34 1 8 C0.505 4.04 0.505 4.04 0 0 Z " fill="#CCE1FB" transform="translate(95,2)"/>
<path d="M0 0 C2.64 0 5.28 0 8 0 C8.00410889 0.55985596 8.00821777 1.11971191 8.01245117 1.6965332 C8.04537305 4.2362587 8.11600694 6.77357981 8.1875 9.3125 C8.19330078 10.19357422 8.19910156 11.07464844 8.20507812 11.98242188 C8.28852962 14.42105994 8.40835511 16.63140707 9 19 C11.39542814 20.86696354 11.39542814 20.86696354 14 22 C14.78515625 24.19921875 14.78515625 24.19921875 15.0625 26.6875 C16.31759621 34.52614634 18.9526061 39.89305706 25.2890625 44.8125 C30.49598964 48.4264403 35.79684989 48.81074606 42 48 C44.25544631 47.12667904 46.23811965 46.11987795 48.30859375 44.875 C50 44 50 44 53 44 C53.05786668 47.79160297 53.09355054 51.58309311 53.125 55.375 C53.14175781 56.45523438 53.15851563 57.53546875 53.17578125 58.6484375 C53.18222656 59.6796875 53.18867187 60.7109375 53.1953125 61.7734375 C53.20578613 62.72653809 53.21625977 63.67963867 53.22705078 64.66162109 C53 67 53 67 51 69 C48.47802734 69.31884766 48.47802734 69.31884766 45.3359375 69.4140625 C44.21445313 69.45273438 43.09296875 69.49140625 41.9375 69.53125 C40.761875 69.5621875 39.58625 69.593125 38.375 69.625 C37.19164062 69.66367188 36.00828125 69.70234375 34.7890625 69.7421875 C31.85953309 69.83668845 28.93001403 69.92224558 26 70 C26 73.3 26 76.6 26 80 C28.97 80.495 28.97 80.495 32 81 C32 82.32 32 83.64 32 85 C22.76 85 13.52 85 4 85 C4 83.68 4 82.36 4 81 C6.31 81 8.62 81 11 81 C10.67 77.37 10.34 73.74 10 70 C8.73542969 69.96261719 7.47085938 69.92523438 6.16796875 69.88671875 C4.5077827 69.82106167 2.84762778 69.75461424 1.1875 69.6875 C0.35412109 69.66494141 -0.47925781 69.64238281 -1.33789062 69.61914062 C-2.54155273 69.5659668 -2.54155273 69.5659668 -3.76953125 69.51171875 C-4.87711792 69.47244263 -4.87711792 69.47244263 -6.00708008 69.43237305 C-8.54089177 68.88265107 -9.45826459 68.06285159 -11 66 C-11.29296875 62.64453125 -11.29296875 62.64453125 -11.1875 58.8125 C-11.16042969 57.54019531 -11.13335937 56.26789063 -11.10546875 54.95703125 C-11.07066406 53.98121094 -11.03585937 53.00539062 -11 52 C-12.11375 52.020625 -13.2275 52.04125 -14.375 52.0625 C-18 52 -18 52 -20 51 C-20 44.07 -20 37.14 -20 30 C-17.04335481 28.5216774 -14.25770263 28.93967217 -11 29 C-11.02320313 28.02417969 -11.04640625 27.04835938 -11.0703125 26.04296875 C-11.08835937 24.77066406 -11.10640625 23.49835937 -11.125 22.1875 C-11.14820313 20.92292969 -11.17140625 19.65835938 -11.1953125 18.35546875 C-11 15 -11 15 -9 12 C-7.0546875 11.70703125 -7.0546875 11.70703125 -4.875 11.8125 C-3.59625 11.874375 -2.3175 11.93625 -1 12 C-1.020625 10.7625 -1.04125 9.525 -1.0625 8.25 C-1.06766681 5.3359175 -0.93015558 2.79046673 0 0 Z " fill="#35375B" transform="translate(25,33)"/>
<path d="M0 0 C2.93167219 0.31693753 4.58982661 0.63225834 6.8125 2.625 C8.4454521 5.8909042 8.33326944 8.40069002 8 12 C7.34 12.66 6.68 13.32 6 14 C5.82684543 16.80862574 5.7679653 19.50681366 5.8125 22.3125 C5.81314453 23.07240234 5.81378906 23.83230469 5.81445312 24.61523438 C5.83922758 27.78361227 5.9344719 30.68127486 6.57421875 33.79296875 C7.05155909 36.26725584 6.70064617 37.60928167 6 40 C5.86328895 41.51696689 5.78091981 43.03969915 5.75 44.5625 C5.71132812 45.70912109 5.71132812 45.70912109 5.671875 46.87890625 C6.08225704 49.531733 7.11786855 50.17192454 9 52 C9.1875 55.6875 9.1875 55.6875 9 59 C7.68 58.34 6.36 57.68 5 57 C5 56.34 5 55.68 5 55 C4.01 55.33 3.02 55.66 2 56 C2.495 59.465 2.495 59.465 3 63 C0.6875 62.875 0.6875 62.875 -2 62 C-4.08428077 59.2433706 -5.16266311 57.33240227 -4.734375 53.82421875 C-4.24554606 51.85842807 -3.63060353 49.92500024 -3 48 C-4.65 49.32 -6.3 50.64 -8 52 C-10.04698414 49.95301586 -9.70045693 45.69588759 -10 43 C-10.2475 43.804375 -10.495 44.60875 -10.75 45.4375 C-11.1625 46.283125 -11.575 47.12875 -12 48 C-13.8125 48.5625 -13.8125 48.5625 -16 49 C-17.6825613 50.31321858 -19.34997172 51.64613064 -21 53 C-24.61930698 54.20643566 -27.19231005 54.32268559 -31 54 C-35.93918408 51.38513784 -39.48734878 48.02530244 -42 43 C-42.71376214 36.62131557 -43.18854237 30.70914361 -39.3125 25.3125 C-35.4439525 21.0391045 -32.2341479 19.94746828 -26.5625 19.625 C-22.03311741 19.73050974 -19.48226914 21.01519788 -16 24 C-14.125 26.25 -14.125 26.25 -13 28 C-13.47840607 23.69434539 -15.79189806 21.73029953 -19 19 C-20.33869705 18.32268304 -21.6941629 17.67774112 -23.0625 17.0625 C-27.24297111 15.14217017 -28.81799923 13.00033475 -31 9 C-29.91332031 9.2165625 -29.91332031 9.2165625 -28.8046875 9.4375 C-22.69650142 10.6260743 -22.69650142 10.6260743 -16.5 10.9375 C-14 11 -14 11 -12.125 12 C-10.64392276 14.63302621 -10.96232573 16.84139867 -11.09375 19.79296875 C-10.93453476 23.54116079 -9.46770623 26.57535212 -8 30 C-7.38125 29.505 -6.7625 29.01 -6.125 28.5 C-4 27 -4 27 -2 27 C-2.08723378 25.22825181 -2.19541655 23.45752623 -2.3125 21.6875 C-2.37050781 20.70136719 -2.42851563 19.71523438 -2.48828125 18.69921875 C-3.056823 15.70026953 -3.71544408 14.90869067 -6 13 C-7.35439668 10.29120665 -7.06501451 7.99066732 -7 5 C-6.01 5 -5.02 5 -4 5 C-3.505 6.98 -3.505 6.98 -3 9 C-1.68 8.67 -0.36 8.34 1 8 C0.505 4.04 0.505 4.04 0 0 Z " fill="#F8F9FB" transform="translate(95,2)"/>
<path d="M0 0 C21.12 0 42.24 0 64 0 C64 3.63 64 7.26 64 11 C61.36008732 13.63991268 60.02053704 13.30240797 56.3359375 13.4140625 C55.21445313 13.45273438 54.09296875 13.49140625 52.9375 13.53125 C51.761875 13.5621875 50.58625 13.593125 49.375 13.625 C48.19164062 13.66367188 47.00828125 13.70234375 45.7890625 13.7421875 C42.85953309 13.83668845 39.93001403 13.92224558 37 14 C37 17.3 37 20.6 37 24 C38.98 24.33 40.96 24.66 43 25 C43 26.32 43 27.64 43 29 C33.76 29 24.52 29 15 29 C15 27.68 15 26.36 15 25 C17.31 25 19.62 25 22 25 C21.67 21.37 21.34 17.74 21 14 C19.73542969 13.96261719 18.47085938 13.92523438 17.16796875 13.88671875 C15.5077827 13.82106167 13.84762778 13.75461424 12.1875 13.6875 C11.35412109 13.66494141 10.52074219 13.64238281 9.66210938 13.61914062 C8.45844727 13.5659668 8.45844727 13.5659668 7.23046875 13.51171875 C6.12288208 13.47244263 6.12288208 13.47244263 4.99291992 13.43237305 C3 13 3 13 0 10 C0 6.7 0 3.4 0 0 Z " fill="#F6F6F8" transform="translate(14,89)"/>
<path d="M0 0 C2.93167219 0.31693753 4.58982661 0.63225834 6.8125 2.625 C8.4454521 5.8909042 8.33326944 8.40069002 8 12 C7.34 12.66 6.68 13.32 6 14 C5.82684543 16.80862574 5.7679653 19.50681366 5.8125 22.3125 C5.81314453 23.07240234 5.81378906 23.83230469 5.81445312 24.61523438 C5.83922758 27.78361227 5.9344719 30.68127486 6.57421875 33.79296875 C7.05155909 36.26725584 6.70064617 37.60928167 6 40 C5.86328895 41.51696689 5.78091981 43.03969915 5.75 44.5625 C5.72421875 45.32691406 5.6984375 46.09132812 5.671875 46.87890625 C6.08225704 49.531733 7.11786855 50.17192454 9 52 C9.1875 55.6875 9.1875 55.6875 9 59 C7.68 58.34 6.36 57.68 5 57 C5 56.34 5 55.68 5 55 C3.515 55.495 3.515 55.495 2 56 C2.33 58.31 2.66 60.62 3 63 C0.6875 62.875 0.6875 62.875 -2 62 C-3.9375 59.3125 -3.9375 59.3125 -5 56 C-4.69811768 55.10498779 -4.39623535 54.20997559 -4.08520508 53.2878418 C-2.83204821 49.49115707 -2.69409959 46.03246731 -2.69921875 42.08203125 C-2.69493362 41.34297043 -2.6906485 40.60390961 -2.68623352 39.842453 C-2.68052064 38.29024272 -2.67996738 36.73800569 -2.68432617 35.18579102 C-2.68750475 32.80894887 -2.66392712 30.43333089 -2.63867188 28.05664062 C-2.63640044 26.5442724 -2.63569466 25.03190084 -2.63671875 23.51953125 C-2.62290413 22.45542778 -2.62290413 22.45542778 -2.60881042 21.36982727 C-2.61492921 17.47031977 -2.61492921 17.47031977 -4.46020508 14.1550293 C-4.9683374 13.77386963 -5.47646973 13.39270996 -6 13 C-7.35439668 10.29120665 -7.06501451 7.99066732 -7 5 C-6.01 5 -5.02 5 -4 5 C-3.67 6.32 -3.34 7.64 -3 9 C-1.68 8.67 -0.36 8.34 1 8 C0.67 5.36 0.34 2.72 0 0 Z " fill="#7F8086" transform="translate(95,2)"/>
<path d="M0 0 C0.33 0 0.66 0 1 0 C3.08402477 23.04981608 3.08402477 23.04981608 -3.6875 31.875 C-6.88309527 35.23752935 -10.55737637 37.62184508 -15 39 C-16.65 39 -18.3 39 -20 39 C-17.69 35.37 -15.38 31.74 -13 28 C-14.485 27.979375 -15.97 27.95875 -17.5 27.9375 C-23.69548436 27.33113345 -26.96073206 24.55265212 -31 20 C-33.73051342 16.41620113 -34.11738937 14.41677508 -34 10 C-33.37351563 10.42152344 -32.74703125 10.84304687 -32.1015625 11.27734375 C-30.87566406 12.09912109 -30.87566406 12.09912109 -29.625 12.9375 C-28.40683594 13.75541016 -28.40683594 13.75541016 -27.1640625 14.58984375 C-22.78502626 17.44333127 -19.15635291 17.72369865 -14 17 C-8.39683127 14.72340605 -4.84416739 11.36016162 -2 6 C-0.75675853 2.7750792 -0.75675853 2.7750792 0 0 Z " fill="#FCFDFE" transform="translate(85,42)"/>
<path d="M0 0 C1.19012695 0.06574219 1.19012695 0.06574219 2.40429688 0.1328125 C8.30832717 0.49582717 8.30832717 0.49582717 9.4375 1.625 C9.53610131 3.02848735 9.56828937 4.43680477 9.5703125 5.84375 C9.57224609 7.11798828 9.57224609 7.11798828 9.57421875 8.41796875 C9.57035156 9.31128906 9.56648438 10.20460938 9.5625 11.125 C9.56830078 12.46498047 9.56830078 12.46498047 9.57421875 13.83203125 C9.57292969 14.68152344 9.57164063 15.53101562 9.5703125 16.40625 C9.56918457 17.19064453 9.56805664 17.97503906 9.56689453 18.78320312 C9.4375 20.625 9.4375 20.625 8.4375 21.625 C5.61915167 21.88949567 2.82455625 22.09397252 0 22.25 C-0.78955078 22.3015625 -1.57910156 22.353125 -2.39257812 22.40625 C-8.31351461 22.74949269 -8.31351461 22.74949269 -10.5625 21.625 C-10.5625 14.695 -10.5625 7.765 -10.5625 0.625 C-7.24752119 -1.03248941 -3.61427396 -0.23603422 0 0 Z " fill="#FAF2EF" transform="translate(15.5625,62.375)"/>
<path d="M0 0 C3.37495058 0.02428022 5.14420406 0.59958588 7.75 2.75 C11.48816506 6.57933982 11.65150932 8.88128583 11.6015625 14.05078125 C11.16141575 17.58979905 9.59154971 19.70525605 7.3125 22.375 C3.54374125 24.88750583 1.78099866 24.90516086 -2.6875 24.375 C-5.66111628 22.59347933 -8.11403612 20.52192775 -9.6875 17.375 C-10.30915748 11.86001005 -10.75154786 7.73916392 -7.25 3.25 C-6.404375 2.63125 -5.55875 2.0125 -4.6875 1.375 C-3.6875 0.375 -3.6875 0.375 0 0 Z " fill="#5B526E" transform="translate(67.6875,26.625)"/>
<path d="M0 0 C1.08667969 0.2165625 1.08667969 0.2165625 2.1953125 0.4375 C8.30349858 1.6260743 8.30349858 1.6260743 14.5 1.9375 C17 2 17 2 18.875 3 C20.35607724 5.63302621 20.03767427 7.84139867 19.90625 10.79296875 C20.06546524 14.54116079 21.53229377 17.57535212 23 21 C23.61875 20.505 24.2375 20.01 24.875 19.5 C27 18 27 18 29 18 C29.17499733 21.2284763 29.28106618 24.45572926 29.375 27.6875 C29.42527344 28.59951172 29.47554687 29.51152344 29.52734375 30.45117188 C29.67307052 37.13031568 29.67307052 37.13031568 27.63769531 39.76025391 C25.9765625 41.14453125 25.9765625 41.14453125 23 43 C20.95301586 40.95301586 21.29954307 36.69588759 21 34 C20.01 36.475 20.01 36.475 19 39 C18.34 38.67 17.68 38.34 17 38 C17.15936035 37.42564209 17.3187207 36.85128418 17.48291016 36.25952148 C18.33210094 32.54882239 18.30796697 28.85596004 18.375 25.0625 C18.41238281 24.26392578 18.44976562 23.46535156 18.48828125 22.64257812 C18.55190003 18.37658519 18.43750962 16.5696024 15.76171875 13.0859375 C13.35340501 11.26692825 11.15333828 9.85193278 8.4375 8.5625 C4.15218805 6.31985341 2.26638991 4.23716375 0 0 Z " fill="#D1E4FD" transform="translate(64,11)"/>
<path d="M0 0 C1.98 0 3.96 0 6 0 C6 0.66 6 1.32 6 2 C9.3 2.33 12.6 2.66 16 3 C16 5.97 16 8.94 16 12 C12.7 12.33 9.4 12.66 6 13 C6.01160156 13.83144531 6.02320312 14.66289062 6.03515625 15.51953125 C6.04417969 16.60621094 6.05320312 17.69289063 6.0625 18.8125 C6.07410156 19.89144531 6.08570312 20.97039063 6.09765625 22.08203125 C6 25 6 25 5 28 C3.35 27.67 1.7 27.34 0 27 C0 22.38 0 17.76 0 13 C-1.32 12.67 -2.64 12.34 -4 12 C-4 11.34 -4 10.68 -4 10 C-6.31 10.66 -8.62 11.32 -11 12 C-10.43601004 8.49411644 -9.33036227 7.01017608 -6.625 4.75 C-6.01914062 4.22921875 -5.41328125 3.7084375 -4.7890625 3.171875 C-3 2 -3 2 0 2 C0 1.34 0 0.68 0 0 Z " fill="#7B7D84" transform="translate(26,3)"/>
<path d="M0 0 C3.32232249 0.57281422 4.81343955 1.45188231 7 4 C8.0625 6.12109375 8.0625 6.12109375 9 8.4375 C10.0944105 11.04724812 10.97346876 12.96683594 12.75 15.1875 C14.63276496 17.91750919 14.46226472 19.76414698 14 23 C12.375 25.875 12.375 25.875 10 28 C6.9375 28.5 6.9375 28.5 4 28 C1.88436141 26.4079207 1.09060458 25.55460392 0.65942383 22.9152832 C0.67513428 22.13499756 0.69084473 21.35471191 0.70703125 20.55078125 C0.71669922 19.70322266 0.72636719 18.85566406 0.73632812 17.98242188 C0.76146484 17.10134766 0.78660156 16.22027344 0.8125 15.3125 C0.82603516 14.41982422 0.83957031 13.52714844 0.85351562 12.60742188 C0.88885921 10.40433834 0.93819507 8.20247418 1 6 C-1.64 6 -4.28 6 -7 6 C-7.33 7.32 -7.66 8.64 -8 10 C-8.66 8.68 -9.32 7.36 -10 6 C-5.56923077 2.92307692 -5.56923077 2.92307692 -2.6875 3.3125 C-1.8521875 3.6528125 -1.8521875 3.6528125 -1 4 C-0.67 2.68 -0.34 1.36 0 0 Z " fill="#FBF7F8" transform="translate(32,27)"/>
<path d="M0 0 C2.64 0 5.28 0 8 0 C8 9.57 8 19.14 8 29 C5.36 29 2.72 29 0 29 C-0.1969993 24.9170667 -0.38095476 20.83364734 -0.5625 16.75 C-0.61857422 15.59113281 -0.67464844 14.43226562 -0.73242188 13.23828125 C-0.78076172 12.12324219 -0.82910156 11.00820313 -0.87890625 9.859375 C-0.9260376 8.83295898 -0.97316895 7.80654297 -1.02172852 6.74902344 C-1.00222257 4.28119317 -0.72799029 2.34329535 0 0 Z " fill="#EC4663" transform="translate(25,33)"/>
<path d="M0 0 C4.95 0 9.9 0 15 0 C15 2.31 15 4.62 15 7 C17.97 7.495 17.97 7.495 21 8 C21 9.32 21 10.64 21 12 C11.76 12 2.52 12 -7 12 C-7 10.68 -7 9.36 -7 8 C-4.69 8 -2.38 8 0 8 C0 5.36 0 2.72 0 0 Z " fill="#F8F8FA" transform="translate(36,106)"/>
<path d="M0 0 C0.33 0 0.66 0 1 0 C1 5.61 1 11.22 1 17 C2.32 17 3.64 17 5 17 C5.33 12.38 5.66 7.76 6 3 C6.66 3.33 7.32 3.66 8 4 C9.03149153 7.46956241 8.86629104 9.5727756 8 13 C7.86328895 14.51696689 7.78091981 16.03969915 7.75 17.5625 C7.72421875 18.32691406 7.6984375 19.09132813 7.671875 19.87890625 C8.08225704 22.531733 9.11786855 23.17192454 11 25 C11.1875 28.6875 11.1875 28.6875 11 32 C9.68 31.34 8.36 30.68 7 30 C7 29.34 7 28.68 7 28 C6.01 28.33 5.02 28.66 4 29 C4.33 31.31 4.66 33.62 5 36 C2.6875 35.875 2.6875 35.875 0 35 C-1.9375 32.3125 -1.9375 32.3125 -3 29 C-2.70480469 28.18660156 -2.40960938 27.37320313 -2.10546875 26.53515625 C-0.51171736 21.43853078 -0.53199503 16.43666533 -0.375 11.125 C-0.33632812 10.05507813 -0.29765625 8.98515625 -0.2578125 7.8828125 C-0.16397548 5.25537592 -0.07828443 2.62793829 0 0 Z " fill="#84838C" transform="translate(93,29)"/>
<path d="M0 0 C1.08667969 0.2165625 1.08667969 0.2165625 2.1953125 0.4375 C8.30349858 1.6260743 8.30349858 1.6260743 14.5 1.9375 C17 2 17 2 18.875 3 C20.390084 5.69348267 20.0990209 8.06417407 19.97265625 11.0859375 C20.00690872 13.48361022 20.91115323 14.89035938 22 17 C22.0777346 19.33203812 22.08967728 21.66839059 22 24 C20 22 20 22 18.6875 18.6875 C16.46035636 13.37322657 13.1338197 10.41919518 7.9375 8.0625 C3.75702889 6.14217017 2.18200077 4.00033475 0 0 Z " fill="#FBFCFE" transform="translate(64,11)"/>
<path d="M0 0 C19.47 0 38.94 0 59 0 C59 0.33 59 0.66 59 1 C46.625 1.495 46.625 1.495 34 2 C34 2.99 34 3.98 34 5 C28.72 5 23.44 5 18 5 C18 4.01 18 3.02 18 2 C12.06 1.67 6.12 1.34 0 1 C0 0.67 0 0.34 0 0 Z " fill="#D6E1F2" transform="translate(17,101)"/>
<path d="M0 0 C2.47407292 0.32987639 3.6637767 0.57972087 5.25 2.5625 C6.3332132 6.08294289 6.58308004 9.38351546 6 13 C3 18.5 3 18.5 0 20 C-3.01135805 20.34556568 -5.09361171 20.57794337 -8 20 C-11.65112739 16.88132869 -12.86987884 15.09673552 -13.4375 10.3125 C-13 7 -13 7 -11 4 C-10.86722656 4.69867188 -10.73445313 5.39734375 -10.59765625 6.1171875 C-10.42105469 7.02726562 -10.24445312 7.93734375 -10.0625 8.875 C-9.88847656 9.77992187 -9.71445312 10.68484375 -9.53515625 11.6171875 C-9.10036299 13.99956317 -9.10036299 13.99956317 -8 16 C-3.97046441 16.33174124 -3.97046441 16.33174124 0 16 C2.27808606 14.03723095 2.27808606 14.03723095 3 11 C2.78253778 6.86821778 2.13657538 3.56095897 0 0 Z " fill="#473754" transform="translate(71,30)"/>
<path d="M0 0 C9.24 0 18.48 0 28 0 C28 1.32 28 2.64 28 4 C18.76 4 9.52 4 0 4 C0 2.68 0 1.36 0 0 Z " fill="#2F3357" transform="translate(29,114)"/>
<path d="M0 0 C1.875 1.375 1.875 1.375 2.625 4 C2.74875 5.175625 2.74875 5.175625 2.875 6.375 C4.195 6.375 5.515 6.375 6.875 6.375 C6.875 8.025 6.875 9.675 6.875 11.375 C5.43663249 11.26041307 3.99929034 11.13290884 2.5625 11 C1.36173828 10.89558594 1.36173828 10.89558594 0.13671875 10.7890625 C-2.125 10.375 -2.125 10.375 -5.125 8.375 C-6.14057588 5.0743784 -6.2342904 3.70287119 -5.125 0.375 C-2.125 -0.625 -2.125 -0.625 0 0 Z " fill="#D24260" transform="translate(35.125,73.625)"/>
<path d="M0 0 C3.29714793 0.32971479 4.6226839 0.6226839 7 3 C7.33333333 8.33333333 7.33333333 8.33333333 6 11 C3.125 11.125 3.125 11.125 0 11 C-2 9 -2 9 -2.25 5.5 C-2 2 -2 2 0 0 Z " fill="#87CEF4" transform="translate(65,33)"/>
<path d="M0 0 C1.98 0 3.96 0 6 0 C6.02708567 1.60407328 6.04643483 3.2082785 6.0625 4.8125 C6.07410156 5.70582031 6.08570313 6.59914063 6.09765625 7.51953125 C6 10 6 10 5 13 C3.35 12.67 1.7 12.34 0 12 C0 8.04 0 4.08 0 0 Z " fill="#383534" transform="translate(26,18)"/>
<path d="M0 0 C0.33 2.64 0.66 5.28 1 8 C3.31 8.66 5.62 9.32 8 10 C8.66 8.02 9.32 6.04 10 4 C10.33 4 10.66 4 11 4 C10.25 10.75 10.25 10.75 8 13 C2.89135255 13.56762749 2.89135255 13.56762749 0 13 C-2.83950981 10.07175551 -2.98724329 8.25938651 -3.1875 4.1875 C-3.125625 3.135625 -3.06375 2.08375 -3 1 C-1 0 -1 0 0 0 Z " fill="#5D5976" transform="translate(63,34)"/>
<path d="M0 0 C0.99 0 1.98 0 3 0 C3 7.59 3 15.18 3 23 C2.01 23 1.02 23 0 23 C0 15.41 0 7.82 0 0 Z " fill="#62646B" transform="translate(95,23)"/>
<path d="M0 0 C0.80179688 0.05220703 1.60359375 0.10441406 2.4296875 0.15820312 C4.41179103 0.28798371 6.39344499 0.42459735 8.375 0.5625 C8.705 1.5525 9.035 2.5425 9.375 3.5625 C2.775 3.5625 -3.825 3.5625 -10.625 3.5625 C-10.625 2.5725 -10.625 1.5825 -10.625 0.5625 C-7.2967269 -1.10163655 -3.62766027 -0.25617406 0 0 Z " fill="#E64562" transform="translate(15.625,62.4375)"/>
<path d="M0 0 C1.9375 1.25 1.9375 1.25 3.9375 4.25 C3.9375 5.24 3.9375 6.23 3.9375 7.25 C-0.0225 7.25 -3.9825 7.25 -8.0625 7.25 C-6.0625 2.25 -6.0625 2.25 -5.0625 0.25 C-2.0625 -0.75 -2.0625 -0.75 0 0 Z " fill="#CA9A67" transform="translate(17.0625,72.75)"/>
<path d="M0 0 C0.928125 0.103125 1.85625 0.20625 2.8125 0.3125 C3.125 2.5625 3.125 2.5625 2.8125 5.3125 C0.5 7.625 0.5 7.625 -2.1875 9.3125 C-3.1775 9.3125 -4.1675 9.3125 -5.1875 9.3125 C-6.33566394 6.49427943 -6.24402601 5.45880262 -5.125 2.5625 C-3.1875 0.3125 -3.1875 0.3125 0 0 Z " fill="#F9F9FA" transform="translate(48.1875,12.6875)"/>
<path d="M0 0 C3.39527689 1.40494216 5.30647023 2.69761694 7 6 C7.75847595 10.79758887 7.46844429 14.11157117 5.1875 18.4375 C3 21 3 21 0 23 C-2.33199388 23.07905064 -4.66832622 23.08798769 -7 23 C-7 22.67 -7 22.34 -7 22 C-5.741875 21.773125 -4.48375 21.54625 -3.1875 21.3125 C-0.18608316 20.54222488 0.81869595 20.19263555 3 17.875 C4.5689368 13.36430671 5.01493238 9.32863273 3.09765625 4.9296875 C2.13810466 3.24278897 1.07651373 1.6147706 0 0 Z " fill="#8E8DA8" transform="translate(72,28)"/>
<path d="M0 0 C5.4 -0.36 5.4 -0.36 7.875 1.125 C9.4682099 3.78034983 9.20214032 5.96789518 9 9 C8.01 9 7.02 9 6 9 C5.7525 8.38125 5.505 7.7625 5.25 7.125 C3.79371361 4.64931313 2.62187494 4.04874998 0 3 C0 2.01 0 1.02 0 0 Z " fill="#D0E4FC" transform="translate(75,13)"/>
<path d="M0 0 C0.33 0 0.66 0 1 0 C1 8.91 1 17.82 1 27 C-1.31 27 -3.62 27 -6 27 C-6 25.35 -6 23.7 -6 22 C-5.67 22.66 -5.34 23.32 -5 24 C-3.68 24 -2.36 24 -1 24 C-0.67 16.08 -0.34 8.16 0 0 Z " fill="#F8425F" transform="translate(32,34)"/>
<path d="M0 0 C2.46800047 1.15173355 4.04783565 2.04783565 6 4 C6.44359365 9.41184254 6.36013356 12.51982193 3 17 C2.34 16.67 1.68 16.34 1 16 C1.66 15.01 2.32 14.02 3 13 C3.36717454 9.54855929 3.48920157 7.71341895 1.5 4.8125 C1.005 4.214375 0.51 3.61625 0 3 C0 2.01 0 1.02 0 0 Z " fill="#625773" transform="translate(42,37)"/>
<path d="M0 0 C0.33 0 0.66 0 1 0 C1.13277344 0.69867188 1.26554687 1.39734375 1.40234375 2.1171875 C1.57894531 3.02726562 1.75554688 3.93734375 1.9375 4.875 C2.11152344 5.77992187 2.28554688 6.68484375 2.46484375 7.6171875 C2.89963701 9.99956317 2.89963701 9.99956317 4 12 C7.02934491 12.65772428 7.02934491 12.65772428 10 13 C8.68 13.99 7.36 14.98 6 16 C2.62822203 14.60478153 0.74982291 13.23717239 -1 10 C-1.26274852 6.2558336 -1.18823797 3.56471391 0 0 Z " fill="#4E3E5A" transform="translate(59,34)"/>
<path d="M0 0 C0.66 0.33 1.32 0.66 2 1 C1.67 2.65 1.34 4.3 1 6 C-1.31 6.66 -3.62 7.32 -6 8 C-5.65120368 4.74456771 -4.97866739 3.98126893 -2.4375 1.75 C-1.633125 1.1725 -0.82875 0.595 0 0 Z " fill="#5E5F65" transform="translate(21,7)"/>
<path d="M0 0 C0 0.66 0 1.32 0 2 C-1.32 2 -2.64 2 -4 2 C-4 2.66 -4 3.32 -4 4 C-5.98 4 -7.96 4 -10 4 C-10 3.01 -10 2.02 -10 1 C-6.78548731 -0.60725635 -3.56387464 -0.05748185 0 0 Z " fill="#F87388" transform="translate(15,62)"/>
<path d="M0 0 C2 3.875 2 3.875 2 5 C-0.64 5 -3.28 5 -6 5 C-6.33 6.32 -6.66 7.64 -7 9 C-7.66 7.68 -8.32 6.36 -9 5 C-4.56923077 1.92307692 -4.56923077 1.92307692 -1.6875 2.3125 C-0.8521875 2.6528125 -0.8521875 2.6528125 0 3 C0 2.01 0 1.02 0 0 Z " fill="#BAB9BC" transform="translate(31,28)"/>
<path d="M0 0 C0.66 0 1.32 0 2 0 C1.12070257 3.51718971 0.28825508 5.68703734 -2.1875 8.375 C-5.66944984 10.38679324 -8.04248927 10.310393 -12 10 C-12 9.67 -12 9.34 -12 9 C-10.14375 8.7215625 -10.14375 8.7215625 -8.25 8.4375 C-5.60907114 7.80536277 -4.34189903 7.40670956 -2.578125 5.30859375 C-1.35008618 3.1745449 -1.35008618 3.1745449 0 0 Z " fill="#9997AE" transform="translate(77,41)"/>
<path d="M0 0 C3.25696479 0.41755959 4.63443291 0.63443291 7 3 C7.125 6.125 7.125 6.125 7 9 C6.67 9 6.34 9 6 9 C6 7.35 6 5.7 6 4 C4.35 4 2.7 4 1 4 C1 3.34 1 2.68 1 2 C0.34 1.67 -0.32 1.34 -1 1 C-0.67 0.67 -0.34 0.34 0 0 Z " fill="#6FC1ED" transform="translate(65,33)"/>
<path d="M0 0 C1.98 0 3.96 0 6 0 C5.67 0.99 5.34 1.98 5 3 C1.4375 4.1875 1.4375 4.1875 -2 5 C-1.34 3.35 -0.68 1.7 0 0 Z " fill="#493956" transform="translate(64,27)"/>
<path d="M0 0 C1.32 0 2.64 0 4 0 C4 1.65 4 3.3 4 5 C2.35 4.67 0.7 4.34 -1 4 C-0.67 2.68 -0.34 1.36 0 0 Z " fill="#9A9CAE" transform="translate(38,80)"/>
<path d="M0 0 C0.99 0 1.98 0 3 0 C3 1.65 3 3.3 3 5 C1.68 5.33 0.36 5.66 -1 6 C-1.042721 4.33388095 -1.04063832 2.66617115 -1 1 C-0.67 0.67 -0.34 0.34 0 0 Z " fill="#E2F5FE" transform="translate(68,37)"/>
<path d="M0 0 C1.98 0.495 1.98 0.495 4 1 C3.67 2.32 3.34 3.64 3 5 C1.68 4.67 0.36 4.34 -1 4 C-0.67 2.68 -0.34 1.36 0 0 Z " fill="#45355A" transform="translate(32,76)"/>
<path d="M0 0 C0.99 0.495 0.99 0.495 2 1 C2.99444068 4.34493684 3.10348268 6.68955197 2 10 C1.34 10 0.68 10 0 10 C0 6.7 0 3.4 0 0 Z " fill="#C2D7EB" transform="translate(99,32)"/>
<path d="M0 0 C0 3 0 3 -2.3125 5.6875 C-5 8 -5 8 -8 8 C-8 7.34 -8 6.68 -8 6 C-6.02678947 4.6273318 -4.02456848 3.29572383 -2 2 C-1.34 1.34 -0.68 0.68 0 0 Z " fill="#584A66" transform="translate(52,16)"/>
</svg>
